# xmcd CD database file generated by Grip 3.0.7
# 
# Track frame offsets:
#       150
#       21475
#       35955
#       65310
#       91170
#       110820
#       142560
#       164245
#       181995
#       202207
#       220837
#       234185
#       248002
# 
# Disc length: 3676 seconds
# 
# Revision: 1
# Processed by: cddbd v1.4PL0 Copyright (c) Steve Scherf et al.
# Submitted via: Grip 3.0.7
# 
DISCID=bb0e5a0d
DTITLE=Various Artist - Cafe'dge Universe
DYEAR=2002
DGENRE=Other
TTITLE0=D-influence - Magic
TTITLE1=Saigenzi - It's too late
TTITLE2=Universal Funk - Step Off
TTITLE3=LAVA feat. Andrea Hopkins - Swing me higher
TTITLE4=Diva Blue - Nappy
TTITLE5=CALM - Dubbing for the nature #2
TTITLE6=The Pharcyde - Heart and Soul
TTITLE7=Blue Foundation - Hollywood
TTITLE8=Rose - Call Me
TTITLE9=Jennie Medin - You are not alone
TTITLE10=Paola Jean - Strong
TTITLE11=Bee+Honey Bread - I feel the earth move
TTITLE12=Banzai Republic - No matter how hard I try
EXTD=
EXTT0=
EXTT1=
EXTT2=
EXTT3=
EXTT4=
EXTT5=
EXTT6=
EXTT7=
EXTT8=
EXTT9=
EXTT10=
EXTT11=
EXTT12=
PLAYORDER=
